<svg viewBox="0 0 800 600" class="chart-svg" xmlns="http://www.w3.org/2000/svg">
  <style>
    .box { fill: white; stroke-width: 2px; rx: 10; ry: 10; cursor: pointer; transition: all 0.3s ease; }
    .baptist-box { stroke: #1E5631; }
    .baptist-line { stroke: #538D56; stroke-width: 4; }
    .baptist-line.dashed-line { stroke: #538D56; stroke-width: 2; stroke-dasharray: 8, 8; }
    .baptist-line.dotted-line { stroke: #538D56; stroke-width: 2; stroke-dasharray: 3, 3; }
    .box-text { text-anchor: middle; dominant-baseline: middle; font-size: 14px; font-weight: 500; pointer-events: none; }
  </style>
  <rect x="350" y="30" width="100" height="40" class="box baptist-box" id="baptist-christ" style="fill: #1E5631;" />
  <text x="400" y="50" class="box-text" style="fill: white;">Christ</text>
  <line x1="400" y1="70" x2="400" y2="120" class="baptist-line" />
  <rect x="350" y="120" width="100" height="40" class="box baptist-box" id="bible" />
  <text x="400" y="140" class="box-text">Bible</text>
  <line x1="400" y1="160" x2="400" y2="210" class="baptist-line" />
  <rect x="330" y="210" width="140" height="40" class="box baptist-box" id="congregation" />
  <text x="400" y="230" class="box-text">Congregation</text>
  <line x1="180" y1="250" x2="620" y2="250" class="baptist-line" />
  <line x1="180" y1="250" x2="180" y2="300" class="baptist-line" />
  <line x1="620" y1="250" x2="620" y2="300" class="baptist-line" />
  <rect x="130" y="300" width="100" height="40" class="box baptist-box" id="pastor" />
  <text x="180" y="320" class="box-text">Pastor</text>
  <rect x="570" y="300" width="100" height="40" class="box baptist-box" id="baptist-deacons" />
  <text x="620" y="320" class="box-text">Deacons</text>
  <line x1="180" y1="360" x2="620" y2="360" class="baptist-line dotted-line" />
  <line x1="180" y1="360" x2="180" y2="410" class="baptist-line" />
  <line x1="620" y1="360" x2="620" y2="410" class="baptist-line" />
  <rect x="130" y="410" width="100" height="40" class="box baptist-box" id="committees" />
  <text x="180" y="430" class="box-text">Committees</text>
  <rect x="570" y="410" width="100" height="40" class="box baptist-box" id="baptist-members" />
  <text x="620" y="430" class="box-text">Members</text>
  <rect x="50" y="210" width="100" height="40" class="box baptist-box dashed-box" id="association" />
  <text x="100" y="230" class="box-text">Association</text>
  <line x1="100" y1="250" x2="100" y2="350" class="baptist-line dashed-line" />
  <rect x="50" y="350" width="100" height="40" class="box baptist-box dashed-box" id="convention" />
  <text x="100" y="370" class="box-text">Convention</text>
</svg>