<svg viewBox="0 0 1200 900" class="chart-svg" xmlns="http://www.w3.org/2000/svg">
  <style>
    .box { fill: white; stroke-width: 2px; rx: 10; ry: 10; cursor: pointer; transition: all 0.3s ease; }
    .nt-box { stroke: #3a5a78; }
    .nt-line { stroke: #91b3c9; stroke-width: 4; }
    .nt-line.dashed-line { stroke: #7fa3bc; stroke-width: 2; stroke-dasharray: 8, 8; }
    .nt-line.dotted-line { stroke: #a9c7d6; stroke-width: 2; stroke-dasharray: 3, 3; }
    .special-box { fill: #3a5a78; color: white; }
    .box-text { text-anchor: middle; dominant-baseline: middle; font-size: 14px; font-weight: 500; pointer-events: none; }
    .special-text { fill: white; }
  </style>
  <!-- Christ -->
  <rect x="550" y="80" width="100" height="40" class="box nt-box special-box" id="christ" />
  <text x="600" y="100" class="box-text special-text">Christ</text>
  <line x1="600" y1="120" x2="600" y2="170" class="nt-line" />
  <!-- Apostles and Prophets -->
  <rect x="450" y="170" width="100" height="40" class="box nt-box" id="apostles" />
  <text x="500" y="190" class="box-text">Apostles</text>
  <rect x="650" y="170" width="100" height="40" class="box nt-box" id="prophets" />
  <text x="700" y="190" class="box-text">Prophets</text>
  <line x1="550" y1="190" x2="650" y2="190" class="nt-line dashed-line" />
  <line x1="600" y1="190" x2="600" y2="240" class="nt-line" />
  <!-- Church in Ephesus -->
  <rect x="530" y="240" width="140" height="40" class="box nt-box" id="local-church" />
  <text x="600" y="260" class="box-text">Church in Ephesus</text>
  <line x1="350" y1="310" x2="850" y2="310" class="nt-line" />
  <!-- Elders, Evangelists, Pastors, Teachers, Members -->
  <line x1="350" y1="310" x2="350" y2="360" class="nt-line dotted-line" />
  <line x1="450" y1="310" x2="450" y2="360" class="nt-line dashed-line" />
  <line x1="550" y1="310" x2="550" y2="360" class="nt-line dashed-line" />
  <line x1="650" y1="310" x2="650" y2="360" class="nt-line dashed-line" />
  <line x1="750" y1="310" x2="750" y2="360" class="nt-line dotted-line" />
  <rect x="300" y="360" width="100" height="40" class="box nt-box" id="elders" />
  <text x="350" y="380" class="box-text">Elders</text>
  <rect x="400" y="360" width="100" height="40" class="box nt-box" id="evangelists" />
  <text x="450" y="380" class="box-text">Evangelists</text>
  <rect x="500" y="360" width="100" height="40" class="box nt-box" id="pastors" />
  <text x="550" y="380" class="box-text">Pastors</text>
  <rect x="600" y="360" width="100" height="40" class="box nt-box" id="teachers" />
  <text x="650" y="380" class="box-text">Teachers</text>
  <rect x="700" y="360" width="100" height="40" class="box nt-box" id="members" />
  <text x="750" y="380" class="box-text">Members</text>
  <!-- Deacons and Widows -->
  <line x1="350" y1="400" x2="350" y2="450" class="nt-line dashed-line" />
  <line x1="550" y1="400" x2="550" y2="450" class="nt-line dashed-line" />
  <rect x="300" y="450" width="100" height="40" class="box nt-box" id="deacons" />
  <text x="350" y="470" class="box-text">Deacons</text>
  <rect x="500" y="450" width="100" height="40" class="box nt-box" id="widows" />
  <text x="550" y="470" class="box-text">Widows</text>
</svg>
